<svg width="15" height="14" viewBox="0 0 15 14" fill="none" xmlns="http://www.w3.org/2000/svg">
<path d="M1.47655 1.51998C1.58742 1.41456 1.69156 1.32978 1.77159 1.27011H1.78272L1.97166 1.14415C2.38776 0.86675 2.64391 0.771639 2.81483 0.753412C2.9362 0.740467 3.0693 0.759282 3.27081 0.895936L3.32531 0.950437L3.33247 0.957602L3.33983 0.96457L5.23185 2.75702C5.56888 3.09739 5.60564 3.39561 5.60564 3.52011C5.60564 3.85359 5.43285 4.00901 5.25094 4.17264C5.20887 4.21047 5.16632 4.24875 5.1253 4.28977L5.12529 4.28978L4.72529 4.68979L4.29054 5.12456L4.63159 5.63614C5.72345 7.27392 7.43946 8.45055 8.32022 8.89093L8.77438 9.11801L9.1539 8.78067L9.98471 8.04217C10.2336 7.92276 10.474 7.91364 10.6835 7.95554C10.9333 8.0055 11.0935 8.11866 11.1253 8.15043L11.1325 8.1576L11.1398 8.16457L13.006 9.93248C13.326 10.3277 13.3936 10.6241 13.404 10.8473C13.373 10.9524 13.2978 11.0846 13.186 11.2222C13.1271 11.2947 13.0698 11.3544 13.0279 11.3951C13.0073 11.4151 12.9912 11.4298 12.9817 11.4384L12.9729 11.4461L12.9727 11.4462L12.9725 11.4464L12.8952 11.5109L12.84 11.5916C12.8379 11.5945 12.8333 11.6007 12.826 11.6099C12.8098 11.6303 12.781 11.665 12.7392 11.7094C12.6554 11.7984 12.5218 11.9242 12.3358 12.0518C11.9691 12.3036 11.3896 12.5701 10.5557 12.5701C9.1351 12.57 6.94158 11.8134 5.03242 10.2412C3.42246 8.91531 2.3786 7.4216 1.73751 6.25815C1.41739 5.6772 1.19936 5.18156 1.06257 4.83523C0.99422 4.66218 0.946311 4.5268 0.916197 4.43715C0.901144 4.39234 0.890552 4.359 0.884088 4.33814L0.878988 4.32139C0.877366 4.31479 0.874965 4.30483 0.87194 4.29176C0.86487 4.26123 0.854457 4.21398 0.842638 4.15311C0.818881 4.03074 0.790101 3.85664 0.770973 3.65475C0.731144 3.23437 0.740579 2.76604 0.866044 2.39532C0.973756 2.07705 1.2156 1.76811 1.47655 1.51998ZM0.881334 4.33078C0.881386 4.33098 0.881358 4.33087 0.881253 4.33046L0.881334 4.33078Z" stroke="#ec571a" stroke-width="1.5"/>
</svg>
